<svg
   width="14.222199in"
   height="10.222199in"
   viewBox="0 0 1024 1024"
   version="1.1"
   id="svg1"
   xmlns="http://www.w3.org/2000/svg"
   xmlnsSvg="http://www.w3.org/2000/svg">
  <path
     id="Selection #12"
     fill="none"
     stroke="#000000"
     stroke-width="1"
     d="m 732,516 c 2.83,-6.58 10.49,-21.98 15.32,-26.62 4.62,-4.44 23.98,-13.39 30.68,-16.64 22.58,-10.93 48.28,-21.51 72,-29.74 2.52,7.55 6.25,16.85 11.33,23 11.82,14.32 37.48,25.79 52.67,40.09 20.73,19.51 28,45.29 28,72.91 0,0 -30,-10.95 -30,-10.95 0,0 -58,-20.02 -58,-20.02 0,0 -82,-22.66 -82,-22.66 z M 179,475 c 15.02,4.25 44.77,20.03 57,29.81 6.39,5.11 13.59,10.62 17,18.19 0,0 -46,11.58 -46,11.58 0,0 -95,29.42 -95,29.42 0.49,-22.6 18.16,-40.83 35,-53.77 7.56,-5.8 18.88,-12.93 24.61,-20.23 3.29,-4.19 5.41,-10.05 7.39,-15 z M 332,217 c 0,0 26,-11.31 26,-11.31 72.44,-25.8 161.57,-32.44 237,-17.89 23.54,4.55 46.47,10.99 69,19.25 0,0 16,6.73 16,6.73 1.89,0.94 4.62,2.19 5.19,4.43 0.56,2.18 -1.7,6.69 -2.61,8.79 0,0 -10.58,23 -10.58,23 0,0 -17,-6.58 -17,-6.58 0,0 -38,-12.54 -38,-12.54 -54.63,-14.42 -112.13,-18.13 -168,-9.46 -19.79,3.08 -47.15,9.4 -66,15.92 0,0 -35,13.66 -35,13.66 z M 138,333 c 0,0 -13.4,-22 -13.4,-22 -1.82,-3.01 -4.06,-7.21 -7.62,-8.36 -2.95,-0.95 -6.17,0.76 -8.98,1.59 -4.85,1.43 -8.97,1.87 -14,1.76 C 75.08,305.55 61.3,290.91 62.04,272 62.49,260.63 68.5,250.7 78,244.55 c 3.68,-2.39 11.29,-5.04 13.45,-7.77 2.32,-2.94 1.44,-6.35 1.73,-9.78 0.43,-5.19 1.51,-11.07 3.18,-16 6.87,-20.35 28.4,-34.76 49.64,-34.8 0,0 12,0 12,0 5.77,-0.84 6.9,-6.69 8.87,-11.2 2.82,-6.43 7.05,-12.74 11.86,-17.83 13.21,-13.97 27.28,-19.39 46.27,-19.17 27.2,0.32 50.96,21.14 51,49 0.02,10.56 -1.06,18.9 -7.1,28 -3.93,5.91 -10.44,10.27 -11.07,15 -0.34,2.61 2.25,9.24 3.17,12 0,0 10,28 10,28 -10.39,2.12 -25.1,9.16 -35,13.69 -21.06,9.65 -46.87,24.29 -66,37.34 z m 747,-23 c 0,0 -27,-15.74 -27,-15.74 -24.89,-12.84 -48.38,-23.39 -75,-32.26 0,0 -31,-9.42 -31,-9.42 -2.46,-0.7 -10.69,-2.49 -11.97,-4.3 -1.4,-2 0.23,-6.11 0.82,-8.28 1.13,-4.2 6.04,-18.68 4.83,-21.99 -1.57,-4.28 -8.14,-6.74 -11.67,-9.54 -4.96,-3.93 -8.47,-9.65 -10.8,-15.47 -13.75,-34.33 13.8,-65.39 48.79,-65 10.61,0.12 22.44,4.02 31,10.29 3.57,2.61 10.33,10.03 13.01,10.93 3.39,1.13 7.7,-1.15 10.99,-2.19 5.49,-1.74 11.23,-2.96 17,-3.03 0,0 8,0 8,0 19.04,0.23 37.89,12.16 47.95,28 2.49,3.93 4.97,8.6 6.51,13 1.41,4.02 1.75,8.43 4.93,11.61 3.16,3.16 14.49,5.11 20.61,8.2 15.29,7.72 24.93,23.1 25,40.19 0.11,26 -16.94,43.3 -43,43 -4.12,-0.05 -12.76,-2.27 -14.98,-1.5 -5.57,1.93 -11.59,17.87 -14.02,23.5 z M 356,267 c 21.5,-12.24 53.67,-20.25 78,-25.28 49.81,-10.31 90.97,-10.2 141,-2.16 30.39,4.89 59.99,12.41 88,25.44 -1.53,6.12 -9.6,21.27 -12.69,28 0,0 -27.01,58 -27.01,58 0,0 -73.3,157 -73.3,157 0,0 -26.69,56 -26.69,56 -2.21,4.8 -5.78,16.92 -12.3,16.46 -5.52,-0.39 -9.97,-13 -12.31,-17.46 0,0 -28.1,-55 -28.1,-55 0,0 -68.85,-143 -68.85,-143 0,0 -29.53,-61 -29.53,-61 z m 201,3.32 c -10.33,2.32 -19.76,8.32 -23.46,18.68 -2.12,5.92 -3.52,18.95 6.46,17.73 9.4,-1.14 5.97,-11.54 14.04,-16.84 8.46,-5.55 17.89,2.75 23.73,-1.63 4.84,-3.62 3.47,-10.08 -0.88,-13.46 -5.12,-3.98 -13.61,-5.16 -19.89,-4.48 z m -116,7.98 c -12.5,2.36 -21.72,8.54 -26.54,20.7 -8.13,20.56 5.04,46.71 28.54,47 7.35,0.08 12.23,0.15 19,-3.4 20.32,-10.65 24.05,-39.49 7.83,-55.42 -7.61,-7.47 -18.52,-9.91 -28.83,-8.88 z m 129,42.02 c -10.1,2.2 -17,5.72 -22.89,14.68 -4.71,7.15 -5.21,12.77 -5.11,21 0.24,20.06 18.41,34.53 38,31.7 23.23,-3.35 35.22,-30.58 24.1,-50.7 -6.66,-12.05 -20.72,-18.14 -34.1,-16.68 z m -87,49.98 c -10.45,1.97 -20.03,6.75 -25,16.7 -3.05,6.1 -2.96,18.39 6.98,16.71 7.93,-1.34 7.69,-14.03 19.02,-15.48 7.63,-0.98 12.97,6.66 18.7,1.34 4.15,-3.86 2.64,-9.73 -0.92,-13.36 -4.61,-4.7 -12.44,-6.48 -18.78,-5.91 z m 26,48 c -8.27,1.32 -14.58,3.02 -20.96,8.88 -14.74,13.56 -14.25,39.37 1.05,52.3 8.4,7.11 17.25,8.75 27.91,7.47 23.15,-2.79 33.92,-30.23 24.51,-49.95 C 535.67,424.77 522.35,417.6 509,418.3 Z M 166,464 c -9.22,6.59 -17.91,8.13 -29,8 -22.1,-0.26 -38.94,-15.59 -43.19,-37 -3.03,-15.25 1.86,-31.21 13.2,-41.91 7.15,-6.73 13.2,-7.29 14.8,-10.48 1.43,-2.86 -1.5,-8.01 -1.77,-14.61 -0.19,-4.72 1.09,-13.43 2.39,-18 0,0 1.82,-6 1.82,-6 0.82,-4.85 -4.04,-10.09 -6.56,-14 -1.63,-2.54 -4.13,-7.51 -6.87,-8.69 0,0 -16.82,0.69 -16.82,0.69 -40.45,-0.46 -62.04,-46 -38.24,-78 3.24,-4.35 7.77,-8.7 12.24,-11.78 2.28,-1.57 6.59,-3.51 7.99,-5.61 0,0 4.87,-19.61 4.87,-19.61 5,-14.19 12.99,-24.64 25.14,-33.51 7.64,-5.59 18.67,-10.48 28,-12.23 3.99,-0.75 15.42,-1.09 17.61,-2.86 2.04,-1.64 3.89,-6 5.26,-8.4 2.37,-4.14 6.13,-9.45 9.3,-13 15.35,-17.18 36.06,-25.26 58.83,-25 41.64,0.49 73.7,36.54 66.72,78 -1.33,7.86 -4.68,16.37 -9.08,23 -2.34,3.54 -7.92,8.77 -7.16,13.09 0,0 6.1,16.91 6.1,16.91 1.9,5.09 6.26,17.95 8.76,22 5.38,8.73 10.37,10.81 13.9,24 3.25,12.12 -0.66,15.24 -1.44,20 -0.67,4.1 1.61,6.89 1.02,13 0,0 -3.42,15 -3.42,15 -0.61,13.21 24.06,26.25 26.19,37 2,10.08 -10.28,11.21 -11.81,17.04 -1.51,5.79 7.47,14.48 -2.78,19.96 0.72,3.21 2.08,6.72 1.62,10 -0.44,3.22 -2.27,5.56 -2.4,9 -0.22,6.07 6.58,14.02 -3.32,22.47 -7.35,6.28 -16.79,6.54 -25.9,6.48 -4.08,0.04 -11.87,-1.23 -15,0 -8.95,3.3 -13.01,21.41 -13.83,30.05 -0.93,9.77 4.27,13.7 9.95,21 2.6,3.34 5.28,7.23 9.88,7.61 0,0 20,-3.61 20,-3.61 0,0 39,-6.75 39,-6.75 27.72,-4.62 56.01,-7.41 84,-9.34 0,0 10,-0.91 10,-0.91 0,0 20,-1 20,-1 0,0 -21.69,-45 -21.69,-45 0,0 -26.57,-57 -26.57,-57 0,0 -22.48,-45 -22.48,-45 0,0 -29.48,-63 -29.48,-63 0,0 -24.03,-52 -24.03,-52 -3.18,-6.36 -8.89,-15.67 -6.01,-22.99 2.31,-5.89 15.49,-10.93 21.26,-13.43 22.48,-9.78 39.27,-14.84 63,-20.46 74.15,-17.58 157.31,-18.24 231,2.17 0,0 48,15.91 48,15.91 7.01,2.83 17.37,7.38 21.52,13.89 5.21,8.17 1.1,16.1 -2.38,23.91 0,0 -23.88,50 -23.88,50 0,0 -24.04,52 -24.04,52 0,0 -44.91,94 -44.91,94 0,0 -31.31,67 -31.31,67 18.43,0 61.33,5.15 81,7.72 0,0 61,9.28 61,9.28 1.73,-4.71 14.64,-28.19 17.68,-31.96 4.79,-5.93 9.41,-7 11.54,-10.25 1.24,-2.54 0.94,-8.96 0,-11.79 -1.35,-6.57 -4.74,-8.88 -11.22,-9 -9.14,-0.16 -23.42,1.68 -30.9,-3.85 -10.37,-7.68 -2.97,-21.27 -3,-26.15 0,0 -2.1,-10 -2.1,-10 -12.66,3.08 -25.62,0.19 -29,-14 2.98,-0.87 6.2,-1.01 9,-2.45 5.32,-2.75 11.07,-11.33 14,-16.55 -2.72,-0.62 -5.43,-1.34 -8,-2.47 -8.87,-3.91 -7.63,-11.1 -4.02,-18.53 6.75,-13.89 21.64,-28.15 24.53,-36 2.65,-7.22 -2.37,-7.35 -2.51,-19 -0.14,-11.59 2.3,-20.07 8.47,-30 0,0 8.25,-11 8.25,-11 1.72,-3.23 4.54,-14.8 5.7,-19 0.73,-2.61 3.68,-11.95 3.6,-13.96 -0.16,-3.93 -10.37,-12.15 -13.26,-16.04 -6.95,-9.35 -10.74,-20.37 -10.76,-32 -0.01,-8.2 -0.42,-12.91 2.04,-21 9.46,-31.11 36.75,-46.36 67.96,-46 10.51,0.13 23.99,4.11 33,9.45 0,0 14,9.78 14,9.78 2.59,0.67 8.13,-1.23 11,-1.77 6.28,-1.19 10.65,-1.47 17,-1.46 17.54,0.03 34.21,5.81 48,16.67 7.75,6.1 14.95,14.66 19.69,23.33 1.88,3.45 5.87,14.47 7.82,16.16 1.64,1.43 6.23,2.74 8.49,3.71 3.81,1.63 9.54,4.59 13,6.83 16.51,10.69 26.97,29.65 27,49.3 0.02,12.08 -1.19,21.22 -7.34,32 -11.74,20.6 -37.34,32.67 -60.66,27 0,0 -11.38,25 -11.38,25 0,0 -2.85,16 -2.85,16 -1.93,8.3 -4.97,16.43 -8.88,24 -7.55,14.62 -16.98,23.5 -20.23,30 -2.7,5.38 -4.02,14.92 -4.49,21 -0.67,8.64 4.26,6.26 6.69,13.02 0,0 1.63,6.98 1.63,6.98 1.4,5.18 4.75,12.78 8.04,17 5.4,6.92 14.2,11.6 21.47,16.34 9.98,6.52 22.19,15.04 30.99,22.95 4.53,4.07 9.61,10.6 13.01,15.71 13.96,21.03 17.07,39.43 18.75,64 0.34,3.84 -0.79,6.7 0,8.9 0.98,3.16 4.6,4.25 6.65,7.2 3.12,4.49 1.33,11.26 -4.4,12.38 -3.7,0.72 -8.71,-2.16 -12,-3.7 0,0 -21,-8.78 -21,-8.78 -26.81,-10.72 -54.34,-20.95 -82,-29.28 -93.07,-28.04 -175.2,-43.07 -272,-50.55 -2.31,-0.18 -4.53,-0.2 -6.36,1.43 -1.9,1.68 -3.44,6.02 -4.5,8.4 0,0 -6.88,14 -6.88,14 0,0 -12.95,27 -12.95,27 -7.98,17.38 -13.61,37.97 -37.31,34.81 -10.52,-1.4 -14.11,-12.54 -18.25,-20.81 0,0 -22,-43 -22,-43 -1.6,-3.18 -9.17,-17.82 -11.14,-19.4 -2.65,-2.14 -8.26,-1.64 -11.61,-1.6 0,0 -11,0.96 -11,0.96 -24.08,1.05 -48.08,3.61 -72,6.76 0,0 -52,7.7 -52,7.7 -50.29,9.07 -106.5,24.09 -155,40.25 0,0 -67,22.33 -67,22.33 -6.14,2.09 -18.39,8.95 -22.68,0.89 -2.59,-4.87 0.15,-9.31 4.72,-11.42 0,0 17.96,-6.47 17.96,-6.47 2.83,-0.94 7.27,-2.05 9.15,-4.42 1.73,-2.19 2.72,-13.57 3.75,-17.58 2.18,-8.59 7.82,-19.84 13.02,-27 8.37,-11.53 15.85,-17.7 27.08,-26.13 5.55,-4.16 16.69,-11.88 20.61,-16.87 2.97,-3.78 5.73,-12.22 7.39,-17 z" />
  <path
     style="fill:#ff0000;stroke-width:0.869244"
     d="m 947.03751,598.33746 c -36.47158,-15.8428 -78.70984,-30.96083 -118.64725,-42.46649 -79.39356,-22.87268 -149.50558,-35.97775 -234.65381,-43.8606 -25.13065,-2.32655 -25.39489,-2.32066 -28.01412,0.6242 -1.16935,1.31472 -7.59092,13.92958 -14.27015,28.033 -20.61356,43.52625 -21.10162,44.44955 -25.83714,48.87909 -8.19754,7.66783 -20.59813,8.91445 -27.86346,2.80107 -1.71604,-1.44394 -8.15808,-13.08646 -19.69317,-35.59092 -20.74952,-40.48143 -22.47211,-43.47079 -25.8576,-44.87311 -2.78821,-1.15491 -23.81552,-0.2106 -52.35019,2.35098 -30.71573,2.75738 -85.72257,10.62261 -112.37993,16.06879 -53.45177,10.92036 -92.77136,21.95973 -166.21164,46.66555 -52.208875,17.56343 -51.401087,17.32276 -54.492397,16.23561 -3.440178,-1.20985 -5.099759,-4.93926 -3.700842,-8.31655 1.295949,-3.12869 3.909602,-4.49113 18.208173,-9.49147 5.976031,-2.08987 11.69761,-4.63013 12.714634,-5.64501 1.335197,-1.33237 2.273628,-4.24134 3.37649,-10.46649 2.534659,-14.307 7.478442,-25.4383 16.652652,-37.49467 5.81582,-7.64291 12.43181,-13.85328 24.05788,-22.58291 15.38639,-11.55311 20.58577,-16.07569 22.6895,-19.73597 2.28581,-3.97709 6.82335,-16.19643 6.23346,-16.78632 -0.20874,-0.20875 -1.90795,0.63192 -3.77601,1.86815 -8.14206,5.38815 -22.5577,7.87059 -33.42853,5.75655 -20.93015,-4.07028 -35.583262,-22.3631 -35.560162,-44.39302 0.0168,-16.04223 7.554942,-29.47448 21.035322,-37.48303 7.88029,-4.68159 8.12524,-5.03962 7.2157,-10.54703 -1.37892,-8.34956 -0.83888,-21.36427 1.18456,-28.54704 2.34143,-8.31158 1.92425,-9.92258 -5.26522,-20.3323 l -5.40307,-7.82316 -14.777053,-0.52165 C 82.02766,320.09095 77.101255,318.92724 69.075759,313.77729 63.972515,310.50255 56.226593,302.43037 53.245483,297.28024 40.297847,274.91208 47.795921,246.89621 70.783216,231.75212 l 5.917621,-3.89855 2.405606,-9.83523 c 4.087574,-16.71196 8.286718,-24.99009 17.689114,-34.87209 12.012613,-12.62538 25.796983,-19.34317 44.709733,-21.78922 10.66697,-1.37959 11.5495,-1.90491 15.44541,-9.19378 9.51821,-17.80762 26.81529,-31.47305 46.45157,-36.69871 10.42858,-2.77527 29.53366,-2.78966 39.06663,-0.0294 14.33987,4.15209 27.03082,12.69205 35.55663,23.92668 5.64013,7.43212 8.38428,12.72561 11.12987,21.4696 1.73121,5.51346 2.03439,8.27441 2.00208,18.23213 -0.0341,10.51426 -0.28863,12.45799 -2.44723,18.68867 -2.6466,7.63933 -5.24968,12.5181 -10.20324,19.12329 -1.7927,2.39041 -3.49769,5.3241 -3.78886,6.5193 -0.36561,1.50074 1.327,7.28303 5.47061,18.68867 7.27318,20.01999 8.60063,22.88162 13.70951,29.55418 5.25088,6.85801 8.96162,14.7594 10.12723,21.56419 0.79174,4.62215 0.70695,6.23402 -0.52629,10.00443 -1.04862,3.20598 -1.40321,6.80119 -1.2368,12.54017 0.16042,5.53304 -0.29085,10.38896 -1.44504,15.54925 -1.62325,7.25745 -1.62725,7.63731 -0.12182,11.57921 1.12004,2.93276 4.4418,7.09236 11.84609,14.83395 10.68193,11.16852 12.98891,14.41024 12.98891,18.25163 0,3.3695 -1.22771,5.11309 -6.13868,8.71806 -5.68567,4.17367 -6.40618,6.08348 -4.73225,12.54339 1.82475,7.04196 1.66488,8.55294 -1.18679,11.2168 -2.42678,2.26695 -2.47014,2.45843 -1.56125,6.89531 0.75141,3.66813 0.66375,5.57542 -0.44676,9.72008 -1.23019,4.59134 -1.24393,5.803 -0.12534,11.05557 1.63194,7.66308 0.66063,11.21584 -4.20492,15.38057 -5.96286,5.10399 -10.44564,6.15893 -26.36989,6.20566 -15.16513,0.0445 -16.36975,0.34765 -19.9303,5.01578 -6.66516,8.73848 -10.55763,29.27694 -6.91614,36.49281 1.70956,3.38762 11.28174,15.32056 13.73652,17.12433 2.69149,1.97769 4.90219,2.349 9.19834,1.54496 17.62478,-3.29855 66.33831,-11.45564 76.49316,-12.8088 24.11675,-3.2136 76.34768,-7.85946 88.35997,-7.85946 3.0349,0 5.518,-0.21742 5.518,-0.48317 0,-0.26575 -4.74262,-10.33807 -10.53914,-22.38294 -5.79654,-12.04488 -17.4784,-36.76378 -25.95972,-54.9309 -8.48132,-18.16713 -20.51016,-43.20126 -26.73076,-55.63139 -6.2206,-12.43014 -19.33737,-39.81122 -29.14836,-60.84684 -42.63608,-91.4155 -38.78227,-82.7288 -38.83918,-87.54572 -0.0804,-6.80412 6.88523,-11.3518 33.42761,-21.82412 35.06639,-13.83547 83.74809,-24.08347 130.82069,-27.5391 15.2013,-1.11593 50.10546,-1.10225 65.62766,0.0257 26.25505,1.90792 52.31064,5.97493 75.1893,11.73629 16.26695,4.09638 60.03262,18.93246 66.90827,22.68118 9.78525,5.33508 13.9311,10.49086 13.9311,17.32476 0,4.17248 -2.90565,11.15498 -16.07794,38.63661 -6.0725,12.66918 -16.82861,35.55193 -23.90246,50.85057 -7.07386,15.29863 -23.60198,50.30729 -36.72919,77.79702 -30.16642,63.17165 -51.93801,109.73762 -51.93801,111.08714 0,0.71727 1.9759,1.04599 6.302,1.04841 15.04663,0.008 59.10316,5.02143 103.48998,11.77569 17.11915,2.605 31.66146,4.73635 32.31622,4.73635 0.65478,0 3.28487,-4.00937 5.84466,-8.90971 2.55978,-4.90035 6.5975,-12.18864 8.9727,-16.19621 3.93062,-6.63195 5.70735,-8.58079 13.8802,-15.22474 2.4806,-2.01656 2.60481,-2.43053 2.54801,-8.493 -0.0691,-7.38271 -1.99894,-12.34831 -5.49026,-14.12728 -1.48662,-0.7575 -7.08562,-1.30427 -16.18105,-1.58015 -15.45284,-0.46872 -19.69956,-1.5556 -23.43813,-5.99866 -3.06856,-3.64676 -3.55354,-7.71594 -1.85929,-15.60024 1.24177,-5.77867 1.29935,-7.62283 0.39179,-12.54836 l -1.06392,-5.77411 -5.85335,0.58783 c -10.02555,1.00682 -17.83477,-2.52271 -21.53108,-9.73142 -1.51989,-2.96417 -1.2481,-3.35141 3.15535,-4.49567 2.27089,-0.5901 5.36081,-2.13089 6.86648,-3.42398 3.0108,-2.58571 8.3574,-9.45803 10.33801,-13.28809 l 1.26576,-2.44771 -4.89801,-1.54397 c -6.67437,-2.10391 -9.88049,-5.20347 -9.86948,-9.54147 0.0145,-5.68901 5.59455,-15.74441 16.08656,-28.98812 6.57799,-8.30318 10.73779,-14.85862 11.33996,-17.87071 0.33189,-1.66012 -0.19353,-5.04626 -1.39864,-9.01384 -1.61163,-5.30593 -1.83513,-7.49512 -1.35409,-13.26322 0.74957,-8.98798 3.51738,-17.25189 7.95162,-23.7414 1.96002,-2.8685 4.90995,-7.17124 6.55539,-9.56165 2.29441,-3.33319 3.97782,-7.92462 7.22253,-19.69909 2.72805,-9.89964 4.03367,-16.13833 3.67581,-17.56419 -0.30525,-1.21622 -3.7789,-5.66663 -7.7192,-9.88979 -11.87766,-12.73033 -15.72536,-22.684 -15.70994,-40.64022 0.0102,-11.8472 1.20936,-17.0976 6.21915,-27.22943 8.07052,-16.32186 23.25208,-27.99188 42.7463,-32.85898 9.06203,-2.26251 26.87846,-2.24341 34.7696,0.0373 8.33514,2.409 16.93247,6.62495 24.75026,12.13704 7.68856,5.42097 8.65846,5.61151 17.57125,3.45201 8.99064,-2.17835 25.63931,-1.98951 35.30285,0.40043 14.02315,3.46815 26.25897,10.30946 36.17661,20.22708 6.95993,6.95991 11.36536,13.52558 16.60622,24.74908 3.35843,7.19213 4.74608,9.28494 6.67299,10.06434 8.43099,3.41007 18.81393,8.89124 23.29466,12.29736 23.15508,17.60176 29.91259,52.67863 15.00459,77.88527 -3.92925,6.64347 -12.29296,14.84282 -19.43282,19.05066 -9.20762,5.42651 -16.53363,7.479 -26.86437,7.52636 -4.78088,0.0219 -9.80844,-0.15572 -11.17247,-0.39476 -2.44357,-0.42825 -2.56605,-0.24324 -8.34608,12.60398 -4.31078,9.58151 -6.16434,14.88239 -6.99091,19.99254 -3.20086,19.79017 -9.16397,33.0311 -23.48794,52.15442 -3.22283,4.30274 -6.46043,9.01113 -7.19468,10.46307 -1.94573,3.84796 -4.08939,15.12386 -4.08939,21.51066 0,4.83496 0.285,5.80177 2.25293,7.64251 3.00428,2.81012 3.83176,4.48863 5.28616,10.72327 1.79708,7.70324 6.84024,17.54389 11.25197,21.95562 2.11515,2.11516 9.02034,7.21004 15.34487,11.32199 16.1311,10.48773 30.5744,21.34252 36.76806,27.63279 2.90197,2.94727 7.49798,8.69762 10.21336,12.77856 12.08019,18.15538 17.47623,36.14895 18.5899,61.98899 l 0.52448,12.16937 3.2421,3.04234 c 5.46601,5.12925 6.21256,8.46694 2.77058,12.38667 -2.09258,2.383 -5.96588,1.76569 -15.8434,-2.52501 z M 516.14728,578.95697 c 1.60669,-1.4107 3.64404,-4.24659 4.52745,-6.30199 0.88339,-2.0554 8.54681,-18.40552 17.02983,-36.33361 13.50096,-28.5331 107.09369,-228.55074 120.86629,-258.30419 2.80184,-6.05291 5.09425,-11.63184 5.09425,-12.39764 0,-1.53334 -4.65344,-3.80892 -19.02291,-9.30237 -24.76533,-9.46781 -58.64537,-16.98818 -96.15145,-21.34281 -16.43536,-1.90823 -61.15593,-2.16644 -75.62392,-0.43665 -32.58522,3.89587 -69.13405,12.14439 -94.41877,21.30889 -9.70899,3.51904 -23.36332,9.8774 -23.36332,10.87951 0,1.69685 18.35594,42.17556 30.4108,67.06223 7.29472,15.05959 28.69934,59.45605 47.56582,98.6588 18.86648,39.20274 42.69398,87.7816 52.95,107.95301 22.02714,43.32273 23.11811,44.71855 30.13593,38.55682 z m 426.53888,-5.47557 c -0.007,-7.6278 -1.94701,-20.77332 -4.20301,-28.46762 -6.99878,-23.86977 -17.78913,-37.1551 -44.99497,-55.39885 -29.68002,-19.90291 -33.9152,-24.29894 -40.81588,-42.36558 -1.2231,-3.20215 -2.44741,-5.14009 -3.14768,-4.98225 -0.63023,0.14208 -7.60006,2.64043 -15.48835,5.55188 -19.61043,7.23786 -42.90164,17.35273 -65.1526,28.2944 -22.73218,11.17829 -24.03787,12.33597 -32.5367,28.84837 -3.25322,6.32073 -5.78013,11.58499 -5.61535,11.69838 0.16479,0.11338 9.29626,2.28875 20.29213,4.83414 37.35335,8.6468 100.75057,26.79247 134.7323,38.56334 17.21095,5.96167 36.57328,12.81504 43.02741,15.22971 6.45406,2.41466 12.22367,4.4141 12.82127,4.44318 0.77468,0.0377 1.0851,-1.75621 1.08143,-6.2491 z M 161.24411,549.78776 c 25.5774,-7.92901 56.87005,-16.99985 69.53924,-20.15743 12.66917,-3.15757 23.18018,-5.85984 23.35778,-6.00504 0.95971,-0.78458 -4.95051,-8.66778 -9.89568,-13.19912 -12.97128,-11.88582 -39.37781,-27.18791 -59.35036,-34.3924 l -6.13496,-2.213 -3.94859,8.11682 c -4.35891,8.96025 -7.05985,11.71989 -23.12908,23.63178 -21.75586,16.12731 -32.14842,28.14261 -37.62085,43.4951 -1.16561,3.27007 -2.37864,8.2393 -2.69561,11.04276 -0.56365,4.98519 -0.53291,5.0862 1.39872,4.59705 1.08626,-0.27508 22.90199,-6.98752 48.47939,-14.91652 z m -6.23776,-227.18903 c 22.34767,-15.40357 31.48731,-21.25223 47.11905,-30.15262 21.55321,-12.27195 54.89419,-27.85304 65.81798,-30.75841 2.03185,-0.54041 3.69427,-1.39281 3.69427,-1.8942 0,-0.5014 -2.72002,-8.60286 -6.04449,-18.00324 -3.32447,-9.40037 -6.29143,-18.13085 -6.59323,-19.40105 -0.6942,-2.92176 0.26511,-4.68065 6.14982,-11.27578 8.98657,-10.07144 12.35212,-20.73804 11.46635,-36.34092 -1.24588,-21.94591 -15.28628,-39.06309 -37.57497,-45.80903 -7.06635,-2.13871 -24.6025,-2.12318 -32.52126,0.0288 -17.49232,4.75368 -31.12173,16.66296 -40.09397,35.03383 -2.38176,4.87668 -5.19578,9.47279 -6.25339,10.21358 -1.45112,1.0164 -4.27491,1.35003 -11.5085,1.35973 -5.45034,0.007 -11.98021,0.57733 -15.13647,1.32134 -8.92764,2.10446 -18.77696,7.73792 -25.74621,14.7259 -9.661923,9.68788 -13.790425,19.10734 -15.170232,34.61192 -0.416723,4.68261 -1.257534,9.11613 -1.86847,9.85227 -0.610936,0.73613 -3.871416,2.71957 -7.245506,4.40766 -15.823794,7.91677 -23.022478,19.51691 -21.98078,35.42034 1.526138,23.29928 21.67181,35.69428 47.152318,29.01137 6.75345,-1.77127 7.35085,-1.80103 9.38611,-0.46747 1.19548,0.78331 6.01384,7.69751 10.70745,15.36489 4.69362,7.66739 8.86602,13.9407 9.27198,13.9407 0.40597,0 8.04344,-5.03533 16.97215,-11.18962 z m 731.18432,-12.5033 c 0,-2.43122 8.81042,-18.84461 11.1904,-20.84726 2.27925,-1.91789 3.00435,-2.07398 6.76411,-1.45607 31.07854,5.10778 53.34352,-12.19149 53.43247,-41.51548 0.0278,-9.25611 -1.10422,-14.63888 -4.5528,-21.6439 -5.82924,-11.84089 -14.97947,-19.15908 -30.36582,-24.28604 -10.75749,-3.58455 -12.12227,-4.76819 -14.33792,-12.43499 -4.48021,-15.50279 -17.42403,-31.10771 -31.69213,-38.20754 -11.17284,-5.55966 -16.22567,-6.53792 -31.23387,-6.04714 -10.66921,0.34889 -13.81374,0.78568 -19.9738,2.77442 -8.63207,2.78681 -8.55152,2.80933 -17.02765,-4.76083 -15.18843,-13.5649 -36.14758,-17.99551 -55.07379,-11.64218 -8.87987,2.98087 -15.1905,6.95976 -21.56193,13.59496 -14.11106,14.6952 -16.98653,35.31417 -7.52931,53.98994 2.5763,5.08757 8.04966,11.18362 12.34076,13.74471 5.77462,3.44651 7.93508,5.99835 7.93508,9.3725 0,1.70235 -1.43779,8.07023 -3.19509,14.15084 -3.86393,13.37 -3.64458,14.46301 3.32736,16.57974 2.55671,0.77623 13.06644,3.95827 23.35503,7.07121 38.23903,11.56969 71.46716,25.93719 103.42178,44.71853 7.41031,4.35539 13.76665,7.92301 14.12515,7.92806 0.35857,0.005 0.65197,-0.48252 0.65197,-1.08348 z M 367.84988,244.38999 c 26.10532,-10.12251 44.52843,-15.32777 72.42042,-20.46168 51.11432,-9.40832 111.34958,-7.65881 163.41721,4.74638 12.2313,2.91412 46.35668,13.78323 59.54297,18.96475 4.78083,1.87861 8.97059,3.15288 9.31058,2.83171 1.30365,-1.23143 13.05248,-27.61942 13.48568,-30.28897 0.62383,-3.84414 -1.51573,-5.57711 -12.80602,-10.37247 -21.86287,-9.28589 -58.78145,-19.75457 -85.17954,-24.15363 -71.02709,-11.83617 -148.11365,-6.70689 -216.00626,14.37286 -9.90946,3.07676 -38.88381,14.71465 -40.62168,16.31619 -0.35015,0.32268 2.51478,7.2237 6.3665,15.33561 3.85173,8.11192 7.54088,16.02019 8.19813,17.57396 0.65724,1.55377 1.38526,2.82503 1.61781,2.82503 0.23256,0 9.34695,-3.46038 20.2542,-7.68974 z"
     id="path1" />
  <path
     style="fill:#a31523;fill-opacity:1;stroke-width:0.614646"
     d="m 948.09119,598.3112 c -35.93525,-14.81564 -50.09107,-20.20962 -75.90874,-28.92449 -88.28473,-29.80089 -177.02773,-48.17698 -278.50894,-57.67112 -21.62989,-2.0236 -24.77854,-2.03124 -27.11429,-0.0659 -2.24584,1.88976 -5.77305,8.6966 -20.66688,39.88314 -13.63607,28.55288 -16.15586,33.21674 -19.98718,36.99406 -9.14483,9.01594 -23.77149,9.7028 -29.45864,1.38337 -2.49108,-3.64408 -7.74331,-13.42044 -22.70411,-42.26087 -14.45729,-27.86979 -16.82683,-32.11063 -19.36721,-34.66227 l -1.77086,-1.77871 -14.864,0.36397 c -44.00435,1.07754 -119.19419,11.24473 -174.05728,23.53607 -42.34835,9.48759 -69.76701,17.50778 -144.10002,42.15056 -25.504242,8.45512 -47.823143,15.5228 -49.597565,15.70593 -2.986863,0.30828 -3.365634,0.19357 -5.10525,-1.54605 -1.348718,-1.34872 -1.879027,-2.46091 -1.879027,-3.94081 0,-4.28041 2.09631,-5.73387 15.366149,-10.65402 12.061863,-4.47226 16.152789,-6.509 17.056173,-8.4917 0.388591,-0.85286 1.425625,-4.95651 2.304528,-9.11921 3.037502,-14.3864 7.056812,-23.83816 14.627832,-34.39862 6.74212,-9.40429 12.55668,-14.93611 29.42145,-27.99079 14.45933,-11.19268 18.1546,-14.71244 20.34167,-19.37548 2.12397,-4.52853 5.63124,-14.56563 5.2299,-14.96697 -0.17013,-0.17012 -2.90451,1.01972 -6.07641,2.64411 -7.75432,3.97111 -13.64027,5.34275 -22.97718,5.35451 -8.42581,0.0106 -13.42794,-1.20495 -20.89796,-5.07842 -6.24611,-3.23883 -13.97642,-11.1279 -17.405671,-17.76314 -5.954941,-11.52219 -7.020078,-24.76696 -2.936134,-36.51033 3.283115,-9.4406 9.013405,-16.25559 19.210195,-22.84657 3.5124,-2.27034 6.42214,-4.59692 6.65102,-5.31806 0.22379,-0.7051 0.0708,-3.95238 -0.34005,-7.21618 -0.93357,-7.41691 -0.39818,-18.25527 1.26831,-25.67532 2.20261,-9.80715 1.95955,-10.76998 -5.49548,-21.76938 l -4.95933,-7.31715 -10.59667,-0.41712 c -20.013509,-0.78778 -25.5765,-1.98623 -33.348218,-7.18427 -6.205453,-4.15047 -13.708825,-12.30528 -16.813965,-18.27374 -3.756945,-7.22133 -5.201669,-13.17675 -5.163653,-21.28556 0.03816,-8.13984 1.410716,-13.89846 5.026938,-21.09077 4.338926,-8.62969 9.764439,-14.57334 19.159674,-20.98939 l 5.272564,-3.60067 2.511281,-9.83978 c 4.393814,-17.21604 8.965649,-25.96155 18.780643,-35.92569 11.551276,-11.72682 22.989456,-17.24591 42.479206,-20.49686 5.04009,-0.8407 9.97373,-1.94738 10.96365,-2.45929 1.00594,-0.52019 2.7929,-2.57307 4.05109,-4.65394 7.84571,-12.97565 14.58037,-20.80414 23.27796,-27.05878 13.54086,-9.73752 26.96154,-13.99351 44.14185,-13.99834 12.75361,-0.004 21.38445,1.93035 31.70292,7.10376 16.28902,8.16689 28.78853,23.01777 34.1124,40.52956 1.58086,5.19989 1.68319,6.25097 1.70548,17.51741 0.0236,11.89915 0.01,12.02648 -1.93131,17.65417 -2.5283,7.33083 -4.93753,12.04927 -9.75646,19.10795 -2.14871,3.14738 -4.08143,6.41853 -4.29495,7.26923 -0.52655,2.09791 1.02355,7.62568 5.92278,21.1211 5.75804,15.86111 7.5215,19.78052 11.5407,25.64998 5.81407,8.49056 7.42761,11.30802 9.42266,16.45326 2.22078,5.72741 3.02016,13.04636 1.78851,16.37537 -0.42,1.1352 -0.99493,6.90435 -1.27764,12.82031 -0.29908,6.25851 -1.03677,13.36946 -1.76415,17.00554 -1.97241,9.85985 -1.36515,11.10544 13.13161,26.93526 13.07967,14.2824 14.26499,17.45911 8.46287,22.68083 -7.94548,7.15068 -8.12128,7.37716 -8.12128,10.46289 0,1.58077 0.44669,4.65241 0.99264,6.82587 1.17045,4.65954 0.874,6.28852 -1.67209,9.18834 -1.88328,2.14496 -1.88923,2.17455 -1.46341,7.28639 0.32171,3.86199 0.16904,6.29466 -0.61666,9.82621 -0.97827,4.39716 -0.97954,5.0786 -0.0202,10.79191 1.48265,8.82939 0.36248,11.63726 -6.69426,16.78032 -4.24273,3.09216 -7.37156,3.65666 -23.12274,4.17184 -15.8645,0.51886 -16.82854,0.73416 -19.97989,4.4619 -2.42318,2.86636 -5.57778,9.79194 -7.07932,15.54188 -1.59006,6.08885 -2.22421,16.22039 -1.24122,19.83031 0.75491,2.77231 7.71609,12.47045 12.54238,17.47374 4.44348,4.60643 5.31163,4.67716 21.78111,1.77438 42.40677,-7.47428 66.36362,-11.17597 85.57961,-13.2233 26.00136,-2.77026 64.70713,-5.87914 73.19583,-5.87914 2.19679,0 3.01941,2.11475 -8.96591,-23.04922 -5.3134,-11.15582 -14.02235,-29.5491 -19.35324,-40.87395 -16.83799,-35.77041 -20.4444,-43.31088 -33.65946,-70.37695 -18.12406,-37.12033 -58.21389,-122.44723 -65.06151,-138.47645 -3.82509,-8.95394 -3.56622,-11.67435 1.55081,-16.29728 6.11889,-5.52805 33.79449,-17.02784 57.21065,-23.77224 30.67916,-8.83631 64.02999,-14.80611 100.18727,-17.93354 11.74998,-1.01632 58.1834,-1.01363 70.06962,0.004 30.00403,2.5689 56.87567,7.10694 79.24686,13.38308 16.36507,4.59114 53.29156,17.2909 59.76415,20.55408 8.15985,4.11384 13.59437,9.81579 14.38584,15.09393 0.74576,4.97318 -1.05853,9.62607 -15.70395,40.49599 -4.81138,10.14166 -15.74108,33.37527 -24.28809,51.63025 -8.54706,18.25498 -23.6273,50.2012 -33.51167,70.9916 -42.97741,90.39703 -54.99529,116.33678 -54.49853,117.63131 0.23451,0.61115 2.49436,0.94353 8.51394,1.25228 22.57648,1.15795 59.70504,5.55095 106.84535,12.64183 10.98679,1.65264 21.65643,3.19073 23.71027,3.41798 l 3.73435,0.4132 1.88333,-2.98683 c 1.0358,-1.64275 3.60066,-6.16762 5.69973,-10.05525 8.77844,-16.25878 11.49585,-19.91251 19.98312,-26.86906 l 3.07323,-2.51895 -0.0119,-5.74298 c -0.0145,-6.9594 -1.08934,-11.03317 -3.61848,-13.71404 -2.17296,-2.30335 -2.66406,-2.3828 -20.95543,-3.39019 -11.37568,-0.62651 -15.75811,-1.58446 -18.74449,-4.09735 -4.3354,-3.64799 -5.14009,-8.07299 -3.29849,-18.13895 0.86997,-4.75517 0.9007,-6.23663 0.22674,-10.93854 -0.42871,-2.99116 -0.95068,-5.70053 -1.1599,-6.02083 -0.23277,-0.35635 -2.16952,-0.38575 -4.99025,-0.0757 -4.95054,0.54408 -10.12549,-0.025 -13.66074,-1.50208 -4.694,-1.96127 -10.73609,-9.24912 -8.9093,-10.74618 0.41256,-0.33808 1.85648,-0.91869 3.2087,-1.29022 1.35222,-0.37154 3.55554,-1.30103 4.89627,-2.06554 2.9648,-1.69056 9.47446,-9.31972 12.01006,-14.07549 l 1.85623,-3.48146 -4.1568,-1.34788 c -15.46043,-5.01323 -14.24644,-12.43942 6.52834,-39.93584 10.5469,-13.95934 11.32707,-16.32024 8.63535,-26.13165 -2.44125,-8.89857 -0.80611,-22.08134 3.88751,-31.34078 0.68545,-1.35223 3.53784,-5.828 6.3386,-9.94616 5.61313,-8.25336 7.35282,-12.66954 11.64416,-29.55846 3.13395,-12.33375 3.13942,-12.29567 -2.78834,-19.24962 -15.52178,-18.20871 -18.12106,-24.47525 -18.07828,-43.58429 0.0272,-12.14778 0.80574,-15.9044 5.20519,-25.11556 3.82445,-8.00721 7.20414,-12.75708 12.96399,-18.21966 5.52831,-5.24295 9.86814,-8.16711 17.45489,-11.76098 8.59749,-4.07265 15.9647,-5.77927 26.72167,-6.19008 17.99012,-0.68703 28.22359,2.38069 45.12666,13.52784 6.62964,4.37207 6.76044,4.42574 10.7563,4.41283 2.22472,-0.007 6.50138,-0.49123 9.50371,-1.07563 6.32836,-1.23186 19.7923,-1.4272 27.22669,-0.39504 10.52829,1.46172 24.09964,7.20374 33.31242,14.09451 5.77899,4.32246 13.7284,12.50003 17.28798,17.78414 1.46903,2.18083 4.32661,7.29776 6.35004,11.37095 5.98718,12.05187 5.2923,11.32017 15.37652,16.19081 4.88138,2.35769 10.90959,5.60191 13.39607,7.20937 18.6121,12.03258 28.67022,36.96925 24.41396,60.52904 -3.51488,19.45624 -17.7589,35.74046 -37.27393,42.61274 -5.12806,1.80584 -5.87693,1.8988 -17.22198,2.13788 -13.92827,0.29351 -11.83771,-1.08637 -17.614,11.62626 -4.94288,10.87817 -6.24728,14.75482 -8.10384,24.08347 -3.72323,18.70885 -8.31256,28.56334 -22.6771,48.69355 -3.76981,5.28291 -7.33974,10.81472 -7.93314,12.29291 -1.731,4.31169 -3.41731,14.26813 -3.41731,20.17665 v 5.45982 l 2.79136,3.27023 c 1.87568,2.19742 3.09518,4.38148 3.7173,6.65764 2.90963,10.64509 6.24436,18.02062 10.49829,23.21957 2.58353,3.15741 8.64167,7.81641 20.17908,15.51863 31.0406,20.72222 40.55999,30.16923 50.63851,50.25336 7.42366,14.79355 10.47264,28.08543 11.73069,51.13997 l 0.60525,11.09225 2.27243,1.99056 c 2.79188,2.44561 5.74471,6.9817 5.74471,8.82486 0,0.75302 -0.71603,2.22012 -1.59121,3.26021 -2.4021,2.8547 -4.99965,2.58879 -15.00422,-1.53597 z M 515.13346,580.28808 c 3.00553,-2.36414 4.88045,-5.44063 10.06298,-16.51191 2.96512,-6.33429 20.11632,-42.90992 38.11378,-81.27919 57.9468,-123.53832 97.86768,-209.18432 99.40921,-213.27193 l 1.50282,-3.98501 -1.50183,-1.29183 c -1.71388,-1.4742 -14.1049,-6.69024 -24.1034,-10.14638 -31.26785,-10.80823 -74.51353,-18.7766 -110.25595,-20.31558 -20.46837,-0.8813 -46.96972,-0.28299 -59.69362,1.34767 -38.72596,4.96303 -77.87324,14.8234 -103.2605,26.00914 -7.89203,3.47726 -10.44898,4.99688 -10.44898,6.20992 0,1.82679 16.02841,37.22786 30.89511,68.23633 37.47694,78.1681 71.44641,148.16066 89.93922,185.31571 27.49276,55.23743 31.66435,62.22903 36.4665,61.11802 0.81845,-0.18936 2.11205,-0.83509 2.87466,-1.43496 z m 427.5755,-2.25373 c 0.68917,-2.37312 0.0263,-12.33599 -1.40895,-21.16522 -2.03558,-12.52437 -5.88676,-23.63639 -11.4889,-33.14918 -7.20781,-12.23936 -16.72682,-21.12559 -38.882,-36.29736 -25.98402,-17.79376 -30.58663,-22.50738 -36.91843,-37.80917 -1.39891,-3.38054 -2.92088,-6.54202 -3.38213,-7.0255 -0.72353,-0.75827 -2.42491,-0.30144 -12.38432,3.3252 -21.39071,7.78927 -46.25625,18.50932 -69.93693,30.15126 -15.21235,7.47871 -19.21967,9.96747 -23.36036,14.5079 -4.00903,4.39604 -15.26553,25.10992 -14.2159,26.15957 0.20277,0.20278 8.87869,2.40122 19.27976,4.88539 61.60059,14.71257 119.75432,32.35687 181.79232,55.15722 5.07075,1.86365 9.48121,3.3154 9.80079,3.22612 0.31965,-0.0893 0.8169,-0.97409 1.10505,-1.96623 z M 145.36374,555.00703 c 41.0651,-12.58884 64.25206,-19.38223 82.05521,-24.04079 28.77381,-7.52925 27.06435,-7.00402 26.83552,-8.24521 -0.34048,-1.84687 -3.72387,-6.36445 -8.04295,-10.73916 -11.80828,-11.96032 -40.07568,-28.55281 -62.72618,-36.81922 l -4.95141,-1.80704 -3.4574,7.11017 c -4.40108,9.05087 -8.01524,12.96192 -21.32722,23.07913 -20.00409,15.20327 -28.29186,23.40108 -34.95693,34.57752 -4.16588,6.98564 -7.83454,18.22026 -7.8445,24.0224 -0.004,2.69979 0.32415,3.38526 1.43874,2.99957 0.38951,-0.1348 15.22922,-4.69661 32.97712,-10.13737 z m 0.39518,-225.74522 c 3.67029,-2.46999 13.03483,-8.79191 20.8101,-14.04871 16.18761,-10.94434 27.24835,-17.75342 41.93418,-25.81497 18.12537,-9.94964 43.69435,-21.91352 55.69218,-26.05868 3.43683,-1.18742 6.6399,-2.40085 7.11793,-2.69653 0.71086,-0.43969 -0.3368,-4.07353 -5.75247,-19.95252 -4.56403,-13.38191 -6.50439,-19.8821 -6.2443,-20.91834 0.20753,-0.82689 2.57679,-4.14954 5.26502,-7.38368 5.74701,-6.9141 8.60595,-11.82326 10.57598,-18.1603 1.26557,-4.07099 1.43234,-5.83123 1.42665,-15.05882 -0.005,-9.04571 -0.19542,-11.10467 -1.41368,-15.33137 -3.9172,-13.59049 -12.42242,-23.85926 -25.4748,-30.75695 -9.2691,-4.89838 -12.41761,-5.54497 -26.88659,-5.52147 -14.19866,0.023 -16.89247,0.50342 -25.58085,4.56175 -13.67546,6.38778 -23.35877,16.41284 -31.79608,32.91824 -1.55726,3.04638 -3.61714,6.48008 -4.57751,7.63045 l -1.74613,2.09157 -10.915,0.51119 c -12.61397,0.59074 -17.02591,1.46451 -24.07549,4.76805 -8.77387,4.11158 -14.97811,8.90312 -20.64735,15.946 -6.613285,8.21566 -9.124439,14.86736 -11.027447,29.21026 -0.667636,5.03193 -1.456202,9.60175 -1.752378,10.15515 -0.296175,0.55341 -2.706101,2.21203 -5.35539,3.68583 -11.730894,6.52591 -16.710366,10.88505 -20.451031,17.90326 -4.936685,9.26216 -4.923161,23.00233 0.03257,33.09381 3.708302,7.55131 11.978538,13.82725 21.133382,16.03725 5.190517,1.253 15.720074,0.85759 23.024724,-0.86466 5.3218,-1.25473 6.69358,-1.38838 7.96361,-0.7759 1.52546,0.73565 4.98434,5.60731 15.03563,21.17691 2.89166,4.47923 5.65216,8.14406 6.13443,8.14406 0.48228,0 3.87983,-2.02089 7.55011,-4.49088 z m 741.50875,-21.24204 c 2.33626,-6.6339 9.15309,-17.86972 11.78492,-19.42439 1.50008,-0.88613 2.31571,-0.91996 6.70546,-0.27809 6.11559,0.89421 17.25805,0.4077 22.35716,-0.97619 10.68632,-2.90023 20.57853,-10.7998 25.00751,-19.97016 3.61681,-7.48859 4.47661,-11.84491 4.42793,-22.43458 -0.0375,-8.13984 -0.2244,-9.7716 -1.59615,-13.93196 -2.41178,-7.3145 -5.64368,-12.53752 -11.18986,-18.08366 -5.36506,-5.36511 -10.33014,-8.49898 -18.10758,-11.42926 -2.57851,-0.97153 -6.54429,-2.47019 -8.81274,-3.33036 -5.34833,-2.02803 -7.27329,-4.24175 -9.38994,-10.79856 -6.55591,-20.3088 -23.81771,-37.36125 -43.11696,-42.59388 -8.69567,-2.35769 -29.78472,-1.72 -39.51539,1.19487 -8.63686,2.58723 -8.98141,2.49955 -16.94815,-4.31274 -13.00247,-11.1184 -27.33844,-15.82611 -43.63259,-14.32826 -21.71677,1.99632 -39.60726,16.42728 -45.26901,36.51534 -1.09001,3.8673 -1.36273,6.35197 -1.31178,11.95082 0.1399,15.37843 6.38205,27.85844 18.00895,36.00561 6.89497,4.83144 7.57802,5.8258 7.14402,10.40015 -0.19244,2.02833 -1.32911,7.14526 -2.52589,11.37095 -3.56402,12.58416 -3.54515,15.65084 0.10548,17.11346 0.94255,0.37765 10.31986,3.30694 20.83833,6.50952 45.29924,13.7923 73.68101,25.92786 110.56569,47.27602 6.76111,3.9132 12.52442,7.04813 12.80724,6.96651 0.2829,-0.0816 1.03148,-1.61664 1.66335,-3.41116 z M 378.31451,240.84543 c 57.88872,-21.3236 125.39913,-27.78454 191.15485,-18.29407 26.1972,3.78103 46.75177,9.11956 81.44058,21.15214 23.23054,8.05803 21.10337,7.43899 22.09719,6.43058 0.95602,-0.97004 9.77471,-20.17191 11.92475,-25.96507 1.77485,-4.78239 1.69556,-6.61672 -0.37008,-8.55567 -5.49549,-5.15851 -33.45141,-15.25554 -64.38416,-23.25407 -25.31949,-6.54708 -49.3124,-10.28913 -78.98198,-12.31843 -13.09861,-0.89591 -47.21839,-0.89877 -60.23529,-0.005 -37.89402,2.60171 -74.9904,9.19887 -106.33374,18.91021 -13.50768,4.18519 -43.63985,16.23639 -43.63985,17.45352 0,1.39853 14.65562,33.70124 16.05528,35.38773 0.42567,0.51289 3.63195,-0.46433 11.7798,-3.59029 6.15721,-2.36226 14.92891,-5.67043 19.49265,-7.35151 z"
     id="path2" />
  <path
     style="fill:#a31523;fill-opacity:1;stroke-width:0.869244"
     d="m 435.33664,343.89216 c -8.05476,-2.64053 -15.30808,-9.33253 -19.26564,-17.77474 -2.04477,-4.36187 -2.31253,-5.992 -2.31253,-14.07837 0,-8.57864 0.17668,-9.50421 2.8516,-14.93774 5.14032,-10.44147 14.73275,-16.82459 26.81896,-17.84624 25.37825,-2.14521 42.93496,23.60326 32.15271,47.1548 -2.90167,6.33808 -8.96898,12.62442 -15.07765,15.62195 -4.2239,2.07268 -6.33454,2.51091 -13.27987,2.7573 -5.39226,0.1913 -9.51735,-0.11996 -11.88758,-0.89696 z"
     id="path3" />
  <path
     style="fill:#a31523;fill-opacity:1;stroke-width:0.869244"
     d="m 535.01751,304.23417 c -1.30292,-1.30293 -1.73848,-2.89748 -1.73848,-6.36446 0,-10.23265 5.42947,-18.44078 15.46203,-23.37509 5.1013,-2.50897 6.65746,-2.85697 12.77554,-2.85697 8.87187,0 14.80711,2.60321 17.22818,7.55633 1.44729,2.96093 1.46293,3.41543 0.20149,5.85478 -1.75908,3.4017 -4.1791,3.94968 -11.78055,2.66752 -3.39524,-0.57267 -7.50772,-0.79087 -9.13884,-0.48487 -4.37003,0.81983 -8.15013,4.48824 -10.86884,10.54772 -3.52004,7.84551 -8.24032,10.35525 -12.14053,6.45504 z"
     id="path4" />
  <path
     style="fill:#a31523;fill-opacity:1;stroke-width:0.869244"
     d="m 565.68957,385.59268 c -13.03311,-4.22163 -21.56758,-15.01193 -22.58986,-28.56082 -0.67368,-8.92867 0.86862,-15.27952 5.28726,-21.77161 4.41639,-6.48881 9.91303,-10.39867 18.12578,-12.89322 5.39995,-1.64018 6.71154,-1.73509 11.97193,-0.86636 3.24917,0.53659 7.72243,1.75356 9.94057,2.70436 5.58263,2.39299 13.02321,9.68831 15.88088,15.57083 2.08824,4.29865 2.37289,5.91034 2.3967,13.57039 0.0248,7.99092 -0.19566,9.16246 -2.73229,14.51694 -5.58105,11.78082 -15.2357,18.30604 -27.66411,18.69714 -4.11489,0.1295 -8.44937,-0.26556 -10.61686,-0.96765 z"
     id="path5" />
  <path
     style="fill:#a31523;fill-opacity:1;stroke-width:0.869244"
     d="m 505.15953,485.86287 c -9.88556,-1.65873 -19.2881,-9.09747 -23.87842,-18.89119 -2.06316,-4.40189 -2.32961,-6.01426 -2.32961,-14.09739 0,-8.21828 0.24875,-9.66555 2.49834,-14.53577 5.93813,-12.85562 21.19753,-21.10432 34.48078,-18.63909 9.68549,1.79752 18.19847,7.33982 23.04732,15.00477 10.09954,15.96509 3.56915,39.92947 -13.19979,48.43883 -3.10355,1.57489 -12.94807,3.80744 -15.53399,3.52283 -0.47808,-0.0527 -2.76617,-0.41397 -5.08463,-0.80299 z"
     id="path6" />
  <path
     style="fill:#a31523;fill-opacity:1;stroke-width:0.869244"
     d="m 461.53201,402.43617 c -2.95147,-1.09181 -4.04579,-3.19533 -4.01082,-7.70964 0.0437,-5.63574 2.42266,-10.16207 7.95585,-15.13688 7.68603,-6.9104 18.4447,-9.75574 27.23052,-7.20163 8.4992,2.47078 13.30224,9.16493 10.48488,14.6131 -1.68776,3.26377 -4.85993,3.88024 -10.15981,1.97443 -5.48535,-1.9725 -11.01548,-1.91637 -14.53554,0.14756 -1.50131,0.88026 -4.44794,4.00345 -6.54806,6.94042 -3.95825,5.53551 -7.24486,7.5461 -10.41702,6.37264 z"
     id="path7" />
  <path
     style="fill:#a31523;fill-opacity:1;stroke-width:0.153662"
     d="m 507.15964,486.11966 c -3.49202,-0.59914 -5.05523,-0.98258 -7.06843,-1.73382 -8.3398,-3.11207 -15.58262,-10.13122 -19.28024,-18.68484 -1.46569,-3.39054 -1.77137,-5.62907 -1.77137,-12.9718 0,-7.2628 0.30283,-9.32208 1.92071,-13.06119 2.37623,-5.49172 5.81946,-9.85345 10.68223,-13.53177 6.38961,-4.83325 15.03729,-7.43614 22.11912,-6.65769 5.97034,0.65627 12.58814,3.3237 17.51786,7.06089 1.59818,1.21157 4.62142,4.16454 5.76746,5.63341 3.42275,4.38692 5.41373,9.0872 6.31362,14.90517 0.39284,2.53978 0.36095,7.34427 -0.0673,10.14165 -1.23641,8.07622 -4.79381,15.1878 -10.26668,20.5241 -2.27339,2.21666 -4.71226,4.0089 -7.05357,5.18344 -2.88688,1.44824 -10.64145,3.38574 -14.51089,3.6256 -1.04831,0.0649 -1.89758,-0.0206 -4.30252,-0.43315 z"
     id="path8" />
</svg>
